<mxfile host="app.diagrams.net" agent="Mozilla/5.0 (Macintosh; Intel Mac OS X 10_15_7) AppleWebKit/605.1.15 (KHTML, like Gecko) Version/18.4 Safari/605.1.15" version="27.0.9">
  <diagram name="Page-1" id="CZEQwg_4485lVKszBa8u">
    <mxGraphModel dx="925" dy="1012" grid="1" gridSize="10" guides="1" tooltips="1" connect="1" arrows="1" fold="1" page="1" pageScale="1" pageWidth="827" pageHeight="1169" math="0" shadow="0">
      <root>
        <mxCell id="0" />
        <mxCell id="1" parent="0" />
        <mxCell id="0K4yB1kXoUdnm-4JcMrZ-4" style="edgeStyle=orthogonalEdgeStyle;rounded=0;orthogonalLoop=1;jettySize=auto;html=1;entryX=0.5;entryY=0;entryDx=0;entryDy=0;startArrow=none;startFill=0;endArrow=classic;endFill=1;exitX=0.5;exitY=0;exitDx=0;exitDy=0;" edge="1" parent="1" source="0K4yB1kXoUdnm-4JcMrZ-1" target="0K4yB1kXoUdnm-4JcMrZ-3">
          <mxGeometry relative="1" as="geometry">
            <Array as="points">
              <mxPoint x="165" y="40" />
              <mxPoint x="605" y="40" />
            </Array>
          </mxGeometry>
        </mxCell>
        <mxCell id="0K4yB1kXoUdnm-4JcMrZ-5" value="REQUISIÇÂO&lt;div&gt;HttP&lt;/div&gt;&lt;div&gt;Protocol&lt;/div&gt;" style="edgeLabel;html=1;align=center;verticalAlign=middle;resizable=0;points=[];" vertex="1" connectable="0" parent="0K4yB1kXoUdnm-4JcMrZ-4">
          <mxGeometry x="0.016" y="3" relative="1" as="geometry">
            <mxPoint as="offset" />
          </mxGeometry>
        </mxCell>
        <mxCell id="0K4yB1kXoUdnm-4JcMrZ-1" value="" style="rounded=1;whiteSpace=wrap;html=1;" vertex="1" parent="1">
          <mxGeometry x="90" y="230" width="150" height="80" as="geometry" />
        </mxCell>
        <mxCell id="0K4yB1kXoUdnm-4JcMrZ-3" value="" style="rounded=1;whiteSpace=wrap;html=1;" vertex="1" parent="1">
          <mxGeometry x="440" y="110" width="330" height="310" as="geometry" />
        </mxCell>
        <mxCell id="0K4yB1kXoUdnm-4JcMrZ-26" style="edgeStyle=orthogonalEdgeStyle;rounded=0;orthogonalLoop=1;jettySize=auto;html=1;entryX=1;entryY=0.5;entryDx=0;entryDy=0;endArrow=none;startFill=0;exitX=1;exitY=0.5;exitDx=0;exitDy=0;" edge="1" parent="1" source="0K4yB1kXoUdnm-4JcMrZ-6" target="0K4yB1kXoUdnm-4JcMrZ-30">
          <mxGeometry relative="1" as="geometry">
            <mxPoint x="760" y="660" as="targetPoint" />
            <Array as="points">
              <mxPoint x="790" y="350" />
              <mxPoint x="790" y="750" />
            </Array>
          </mxGeometry>
        </mxCell>
        <mxCell id="0K4yB1kXoUdnm-4JcMrZ-6" value="CGI&lt;div&gt;(Common Gatway Interface)&lt;/div&gt;&lt;div&gt;Script&lt;/div&gt;" style="rounded=1;whiteSpace=wrap;html=1;" vertex="1" parent="1">
          <mxGeometry x="530" y="300" width="170" height="100" as="geometry" />
        </mxCell>
        <mxCell id="0K4yB1kXoUdnm-4JcMrZ-8" style="edgeStyle=orthogonalEdgeStyle;rounded=0;orthogonalLoop=1;jettySize=auto;html=1;entryX=0.25;entryY=1;entryDx=0;entryDy=0;exitX=0.258;exitY=0.004;exitDx=0;exitDy=0;exitPerimeter=0;" edge="1" parent="1" source="0K4yB1kXoUdnm-4JcMrZ-7" target="0K4yB1kXoUdnm-4JcMrZ-6">
          <mxGeometry relative="1" as="geometry" />
        </mxCell>
        <mxCell id="0K4yB1kXoUdnm-4JcMrZ-9" style="edgeStyle=orthogonalEdgeStyle;rounded=0;orthogonalLoop=1;jettySize=auto;html=1;entryX=0.75;entryY=1;entryDx=0;entryDy=0;exitX=0.742;exitY=0.004;exitDx=0;exitDy=0;exitPerimeter=0;endArrow=none;startFill=1;startArrow=classic;" edge="1" parent="1" source="0K4yB1kXoUdnm-4JcMrZ-7" target="0K4yB1kXoUdnm-4JcMrZ-6">
          <mxGeometry relative="1" as="geometry" />
        </mxCell>
        <mxCell id="0K4yB1kXoUdnm-4JcMrZ-7" value="Banco" style="shape=cylinder3;whiteSpace=wrap;html=1;boundedLbl=1;backgroundOutline=1;size=15;" vertex="1" parent="1">
          <mxGeometry x="530" y="510" width="170" height="80" as="geometry" />
        </mxCell>
        <mxCell id="0K4yB1kXoUdnm-4JcMrZ-15" style="edgeStyle=orthogonalEdgeStyle;rounded=0;orthogonalLoop=1;jettySize=auto;html=1;entryX=0.5;entryY=1;entryDx=0;entryDy=0;" edge="1" parent="1" source="0K4yB1kXoUdnm-4JcMrZ-14" target="0K4yB1kXoUdnm-4JcMrZ-1">
          <mxGeometry relative="1" as="geometry">
            <mxPoint x="190" y="530" as="targetPoint" />
          </mxGeometry>
        </mxCell>
        <mxCell id="0K4yB1kXoUdnm-4JcMrZ-16" value="STDIN" style="edgeLabel;html=1;align=center;verticalAlign=middle;resizable=0;points=[];" vertex="1" connectable="0" parent="0K4yB1kXoUdnm-4JcMrZ-15">
          <mxGeometry x="0.0289" y="4" relative="1" as="geometry">
            <mxPoint as="offset" />
          </mxGeometry>
        </mxCell>
        <mxCell id="0K4yB1kXoUdnm-4JcMrZ-14" value="Actor" style="shape=umlActor;verticalLabelPosition=bottom;verticalAlign=top;html=1;outlineConnect=0;" vertex="1" parent="1">
          <mxGeometry x="150" y="550" width="30" height="60" as="geometry" />
        </mxCell>
        <mxCell id="0K4yB1kXoUdnm-4JcMrZ-22" value="" style="image;points=[];aspect=fixed;html=1;align=center;shadow=0;dashed=0;image=img/lib/allied_telesis/computer_and_terminals/Personal_Computer_with_Server.svg;" vertex="1" parent="1">
          <mxGeometry x="123.8" y="238.79999999999995" width="62.400000000000006" height="62.400000000000006" as="geometry" />
        </mxCell>
        <mxCell id="0K4yB1kXoUdnm-4JcMrZ-30" value="" style="swimlane;startSize=0;" vertex="1" parent="1">
          <mxGeometry x="450" y="700" width="260" height="100" as="geometry" />
        </mxCell>
        <mxCell id="0K4yB1kXoUdnm-4JcMrZ-39" style="edgeStyle=orthogonalEdgeStyle;rounded=0;orthogonalLoop=1;jettySize=auto;html=1;entryX=0;entryY=0.5;entryDx=0;entryDy=0;" edge="1" parent="0K4yB1kXoUdnm-4JcMrZ-30" source="0K4yB1kXoUdnm-4JcMrZ-37" target="0K4yB1kXoUdnm-4JcMrZ-38">
          <mxGeometry relative="1" as="geometry" />
        </mxCell>
        <mxCell id="0K4yB1kXoUdnm-4JcMrZ-37" value="/usr/lib/cgi-bin/" style="text;html=1;align=center;verticalAlign=middle;resizable=0;points=[];autosize=1;strokeColor=none;fillColor=none;" vertex="1" parent="0K4yB1kXoUdnm-4JcMrZ-30">
          <mxGeometry x="5" y="35" width="100" height="30" as="geometry" />
        </mxCell>
        <mxCell id="0K4yB1kXoUdnm-4JcMrZ-38" value="SCRIPT" style="text;html=1;align=center;verticalAlign=middle;whiteSpace=wrap;rounded=0;" vertex="1" parent="0K4yB1kXoUdnm-4JcMrZ-30">
          <mxGeometry x="170" y="35" width="60" height="30" as="geometry" />
        </mxCell>
        <mxCell id="0K4yB1kXoUdnm-4JcMrZ-31" value="SO&lt;div&gt;&lt;br&gt;&lt;/div&gt;" style="text;html=1;align=center;verticalAlign=middle;whiteSpace=wrap;rounded=0;" vertex="1" parent="1">
          <mxGeometry x="450" y="120" width="60" height="30" as="geometry" />
        </mxCell>
        <mxCell id="0K4yB1kXoUdnm-4JcMrZ-34" style="edgeStyle=orthogonalEdgeStyle;rounded=0;orthogonalLoop=1;jettySize=auto;html=1;entryX=0.5;entryY=0;entryDx=0;entryDy=0;startArrow=classic;startFill=1;" edge="1" parent="1" source="0K4yB1kXoUdnm-4JcMrZ-33" target="0K4yB1kXoUdnm-4JcMrZ-6">
          <mxGeometry relative="1" as="geometry" />
        </mxCell>
        <mxCell id="0K4yB1kXoUdnm-4JcMrZ-41" style="edgeStyle=orthogonalEdgeStyle;rounded=0;orthogonalLoop=1;jettySize=auto;html=1;entryX=1;entryY=0.5;entryDx=0;entryDy=0;" edge="1" parent="1" source="0K4yB1kXoUdnm-4JcMrZ-33" target="0K4yB1kXoUdnm-4JcMrZ-1">
          <mxGeometry relative="1" as="geometry" />
        </mxCell>
        <mxCell id="0K4yB1kXoUdnm-4JcMrZ-42" value="HTTP" style="edgeLabel;html=1;align=center;verticalAlign=middle;resizable=0;points=[];" vertex="1" connectable="0" parent="0K4yB1kXoUdnm-4JcMrZ-41">
          <mxGeometry x="0.5648" y="2" relative="1" as="geometry">
            <mxPoint as="offset" />
          </mxGeometry>
        </mxCell>
        <mxCell id="0K4yB1kXoUdnm-4JcMrZ-43" value="Response" style="edgeLabel;html=1;align=center;verticalAlign=middle;resizable=0;points=[];" vertex="1" connectable="0" parent="0K4yB1kXoUdnm-4JcMrZ-41">
          <mxGeometry x="0.0387" y="-1" relative="1" as="geometry">
            <mxPoint as="offset" />
          </mxGeometry>
        </mxCell>
        <mxCell id="0K4yB1kXoUdnm-4JcMrZ-33" value="Apache&lt;div&gt;module_CGI&lt;/div&gt;" style="rounded=1;whiteSpace=wrap;html=1;" vertex="1" parent="1">
          <mxGeometry x="555" y="140" width="120" height="60" as="geometry" />
        </mxCell>
      </root>
    </mxGraphModel>
  </diagram>
</mxfile>
